<svg xmlns="http://www.w3.org/2000/svg" xmlns:xlink="http://www.w3.org/1999/xlink" width="100" zoomAndPan="magnify" viewBox="0 0 75 74.999997" height="100" preserveAspectRatio="xMidYMid meet" version="1.0"><defs><clipPath id="2124776e58"><path d="M 10.335938 4 L 64.335938 4 L 64.335938 75 L 10.335938 75 Z M 10.335938 4 " clip-rule="nonzero"/></clipPath><clipPath id="9c912f7b31"><path d="M 10.335938 0 L 64.335938 0 L 64.335938 71 L 10.335938 71 Z M 10.335938 0 " clip-rule="nonzero"/></clipPath></defs><g clip-path="url(#2124776e58)"><path fill="#b3b3b3" d="M 59.578125 75 L 15.078125 75 C 12.476562 75 10.367188 72.878906 10.367188 70.257812 L 10.367188 9.199219 C 10.367188 6.582031 12.476562 4.457031 15.078125 4.457031 L 59.589844 4.457031 C 62.195312 4.457031 64.304688 6.582031 64.304688 9.199219 L 64.304688 70.246094 C 64.304688 72.878906 62.183594 75 59.578125 75 Z M 59.578125 75 " fill-opacity="1" fill-rule="nonzero"/></g><g clip-path="url(#9c912f7b31)"><path fill="#e6e6e6" d="M 59.578125 70.542969 L 15.078125 70.542969 C 12.476562 70.542969 10.367188 68.417969 10.367188 65.800781 L 10.367188 4.742188 C 10.367188 2.121094 12.476562 0 15.078125 0 L 59.589844 0 C 62.195312 0 64.304688 2.121094 64.304688 4.742188 L 64.304688 65.789062 C 64.304688 68.417969 62.183594 70.542969 59.578125 70.542969 Z M 59.578125 70.542969 " fill-opacity="1" fill-rule="nonzero"/></g><path fill="#808080" d="M 58.917969 16.503906 L 16.921875 16.503906 C 16.460938 16.503906 16.089844 16.132812 16.089844 15.667969 L 16.089844 5.824219 C 16.089844 5.363281 16.460938 4.988281 16.921875 4.988281 L 58.917969 4.988281 C 59.378906 4.988281 59.746094 5.363281 59.746094 5.824219 L 59.746094 15.667969 C 59.746094 16.121094 59.378906 16.503906 58.917969 16.503906 Z M 58.917969 16.503906 " fill-opacity="1" fill-rule="nonzero"/><path fill="#666666" d="M 17.984375 7.675781 C 17.984375 7.179688 18.332031 6.773438 18.761719 6.773438 L 59.746094 6.773438 L 59.746094 5.882812 C 59.746094 5.382812 59.398438 4.976562 58.972656 4.976562 L 16.863281 4.976562 C 16.4375 4.976562 16.089844 5.382812 16.089844 5.882812 L 16.089844 15.589844 C 16.089844 16.085938 16.4375 16.492188 16.863281 16.492188 L 17.984375 16.492188 Z M 17.984375 7.675781 " fill-opacity="1" fill-rule="nonzero"/><path fill="#421e68" d="M 23.910156 30.929688 L 16.851562 30.929688 C 16.394531 30.929688 16.023438 30.558594 16.023438 30.09375 L 16.023438 22.996094 C 16.023438 22.53125 16.394531 22.160156 16.851562 22.160156 L 23.910156 22.160156 C 24.371094 22.160156 24.742188 22.53125 24.742188 22.996094 L 24.742188 30.09375 C 24.75 30.558594 24.371094 30.929688 23.910156 30.929688 Z M 23.910156 30.929688 " fill-opacity="1" fill-rule="nonzero"/><path fill="#421e68" d="M 23.910156 42.421875 L 16.851562 42.421875 C 16.394531 42.421875 16.023438 42.050781 16.023438 41.585938 L 16.023438 34.484375 C 16.023438 34.023438 16.394531 33.652344 16.851562 33.652344 L 23.910156 33.652344 C 24.371094 33.652344 24.742188 34.023438 24.742188 34.484375 L 24.742188 41.585938 C 24.75 42.050781 24.371094 42.421875 23.910156 42.421875 Z M 23.910156 42.421875 " fill-opacity="1" fill-rule="nonzero"/><path fill="#421e68" d="M 35.007812 30.929688 L 27.949219 30.929688 C 27.488281 30.929688 27.117188 30.558594 27.117188 30.09375 L 27.117188 22.996094 C 27.117188 22.53125 27.488281 22.160156 27.949219 22.160156 L 35.007812 22.160156 C 35.46875 22.160156 35.835938 22.53125 35.835938 22.996094 L 35.835938 30.09375 C 35.835938 30.558594 35.46875 30.929688 35.007812 30.929688 Z M 35.007812 30.929688 " fill-opacity="1" fill-rule="nonzero"/><path fill="#421e68" d="M 35.007812 42.421875 L 27.949219 42.421875 C 27.488281 42.421875 27.117188 42.050781 27.117188 41.585938 L 27.117188 34.484375 C 27.117188 34.023438 27.488281 33.652344 27.949219 33.652344 L 35.007812 33.652344 C 35.46875 33.652344 35.835938 34.023438 35.835938 34.484375 L 35.835938 41.585938 C 35.835938 42.050781 35.46875 42.421875 35.007812 42.421875 Z M 35.007812 42.421875 " fill-opacity="1" fill-rule="nonzero"/><path fill="#662d91" d="M 23.910156 30.253906 L 16.851562 30.253906 C 16.394531 30.253906 16.023438 29.878906 16.023438 29.417969 L 16.023438 22.316406 C 16.023438 21.855469 16.394531 21.480469 16.851562 21.480469 L 23.910156 21.480469 C 24.371094 21.480469 24.742188 21.855469 24.742188 22.316406 L 24.742188 29.417969 C 24.75 29.878906 24.371094 30.253906 23.910156 30.253906 Z M 23.910156 30.253906 " fill-opacity="1" fill-rule="nonzero"/><path fill="#662d91" d="M 23.910156 41.746094 L 16.851562 41.746094 C 16.394531 41.746094 16.023438 41.371094 16.023438 40.910156 L 16.023438 33.808594 C 16.023438 33.347656 16.394531 32.972656 16.851562 32.972656 L 23.910156 32.972656 C 24.371094 32.972656 24.742188 33.347656 24.742188 33.808594 L 24.742188 40.910156 C 24.75 41.371094 24.371094 41.746094 23.910156 41.746094 Z M 23.910156 41.746094 " fill-opacity="1" fill-rule="nonzero"/><path fill="#662d91" d="M 35.007812 30.253906 L 27.949219 30.253906 C 27.488281 30.253906 27.117188 29.878906 27.117188 29.417969 L 27.117188 22.316406 C 27.117188 21.855469 27.488281 21.480469 27.949219 21.480469 L 35.007812 21.480469 C 35.46875 21.480469 35.835938 21.855469 35.835938 22.316406 L 35.835938 29.417969 C 35.835938 29.878906 35.46875 30.253906 35.007812 30.253906 Z M 35.007812 30.253906 " fill-opacity="1" fill-rule="nonzero"/><path fill="#662d91" d="M 35.007812 41.746094 L 27.949219 41.746094 C 27.488281 41.746094 27.117188 41.371094 27.117188 40.910156 L 27.117188 33.808594 C 27.117188 33.347656 27.488281 32.972656 27.949219 32.972656 L 35.007812 32.972656 C 35.46875 32.972656 35.835938 33.347656 35.835938 33.808594 L 35.835938 40.910156 C 35.835938 41.371094 35.46875 41.746094 35.007812 41.746094 Z M 35.007812 41.746094 " fill-opacity="1" fill-rule="nonzero"/><path fill="#421e68" d="M 46.460938 30.929688 L 39.40625 30.929688 C 38.945312 30.929688 38.574219 30.558594 38.574219 30.09375 L 38.574219 22.996094 C 38.574219 22.53125 38.945312 22.160156 39.40625 22.160156 L 46.460938 22.160156 C 46.921875 22.160156 47.292969 22.53125 47.292969 22.996094 L 47.292969 30.09375 C 47.292969 30.558594 46.921875 30.929688 46.460938 30.929688 Z M 46.460938 30.929688 " fill-opacity="1" fill-rule="nonzero"/><path fill="#421e68" d="M 46.460938 42.421875 L 39.40625 42.421875 C 38.945312 42.421875 38.574219 42.050781 38.574219 41.585938 L 38.574219 34.484375 C 38.574219 34.023438 38.945312 33.652344 39.40625 33.652344 L 46.460938 33.652344 C 46.921875 33.652344 47.292969 34.023438 47.292969 34.484375 L 47.292969 41.585938 C 47.292969 42.050781 46.921875 42.421875 46.460938 42.421875 Z M 46.460938 42.421875 " fill-opacity="1" fill-rule="nonzero"/><path fill="#421e68" d="M 57.546875 30.929688 L 50.492188 30.929688 C 50.03125 30.929688 49.660156 30.558594 49.660156 30.09375 L 49.660156 22.996094 C 49.660156 22.53125 50.03125 22.160156 50.492188 22.160156 L 57.546875 22.160156 C 58.007812 22.160156 58.378906 22.53125 58.378906 22.996094 L 58.378906 30.09375 C 58.390625 30.558594 58.007812 30.929688 57.546875 30.929688 Z M 57.546875 30.929688 " fill-opacity="1" fill-rule="nonzero"/><path fill="#421e68" d="M 57.546875 42.421875 L 50.492188 42.421875 C 50.03125 42.421875 49.660156 42.050781 49.660156 41.585938 L 49.660156 34.484375 C 49.660156 34.023438 50.03125 33.652344 50.492188 33.652344 L 57.546875 33.652344 C 58.007812 33.652344 58.378906 34.023438 58.378906 34.484375 L 58.378906 41.585938 C 58.390625 42.050781 58.007812 42.421875 57.546875 42.421875 Z M 57.546875 42.421875 " fill-opacity="1" fill-rule="nonzero"/><path fill="#662d91" d="M 46.460938 30.253906 L 39.40625 30.253906 C 38.945312 30.253906 38.574219 29.878906 38.574219 29.417969 L 38.574219 22.316406 C 38.574219 21.855469 38.945312 21.480469 39.40625 21.480469 L 46.460938 21.480469 C 46.921875 21.480469 47.292969 21.855469 47.292969 22.316406 L 47.292969 29.417969 C 47.292969 29.878906 46.921875 30.253906 46.460938 30.253906 Z M 46.460938 30.253906 " fill-opacity="1" fill-rule="nonzero"/><path fill="#662d91" d="M 46.460938 41.746094 L 39.40625 41.746094 C 38.945312 41.746094 38.574219 41.371094 38.574219 40.910156 L 38.574219 33.808594 C 38.574219 33.347656 38.945312 32.972656 39.40625 32.972656 L 46.460938 32.972656 C 46.921875 32.972656 47.292969 33.347656 47.292969 33.808594 L 47.292969 40.910156 C 47.292969 41.371094 46.921875 41.746094 46.460938 41.746094 Z M 46.460938 41.746094 " fill-opacity="1" fill-rule="nonzero"/><path fill="#662d91" d="M 57.546875 30.253906 L 50.492188 30.253906 C 50.03125 30.253906 49.660156 29.878906 49.660156 29.417969 L 49.660156 22.316406 C 49.660156 21.855469 50.03125 21.480469 50.492188 21.480469 L 57.546875 21.480469 C 58.007812 21.480469 58.378906 21.855469 58.378906 22.316406 L 58.378906 29.417969 C 58.390625 29.878906 58.007812 30.253906 57.546875 30.253906 Z M 57.546875 30.253906 " fill-opacity="1" fill-rule="nonzero"/><path fill="#662d91" d="M 57.546875 41.746094 L 50.492188 41.746094 C 50.03125 41.746094 49.660156 41.371094 49.660156 40.910156 L 49.660156 33.808594 C 49.660156 33.347656 50.03125 32.972656 50.492188 32.972656 L 57.546875 32.972656 C 58.007812 32.972656 58.378906 33.347656 58.378906 33.808594 L 58.378906 40.910156 C 58.390625 41.371094 58.007812 41.746094 57.546875 41.746094 Z M 57.546875 41.746094 " fill-opacity="1" fill-rule="nonzero"/><path fill="#421e68" d="M 23.910156 53.945312 L 16.851562 53.945312 C 16.394531 53.945312 16.023438 53.574219 16.023438 53.113281 L 16.023438 46.011719 C 16.023438 45.546875 16.394531 45.175781 16.851562 45.175781 L 23.910156 45.175781 C 24.371094 45.175781 24.742188 45.546875 24.742188 46.011719 L 24.742188 53.113281 C 24.75 53.574219 24.371094 53.945312 23.910156 53.945312 Z M 23.910156 53.945312 " fill-opacity="1" fill-rule="nonzero"/><path fill="#421e68" d="M 23.910156 65.4375 L 16.851562 65.4375 C 16.394531 65.4375 16.023438 65.066406 16.023438 64.601562 L 16.023438 57.503906 C 16.023438 57.039062 16.394531 56.667969 16.851562 56.667969 L 23.910156 56.667969 C 24.371094 56.667969 24.742188 57.039062 24.742188 57.503906 L 24.742188 64.59375 C 24.75 65.066406 24.371094 65.4375 23.910156 65.4375 Z M 23.910156 65.4375 " fill-opacity="1" fill-rule="nonzero"/><path fill="#421e68" d="M 35.007812 53.945312 L 27.949219 53.945312 C 27.488281 53.945312 27.117188 53.574219 27.117188 53.113281 L 27.117188 46.011719 C 27.117188 45.546875 27.488281 45.175781 27.949219 45.175781 L 35.007812 45.175781 C 35.46875 45.175781 35.835938 45.546875 35.835938 46.011719 L 35.835938 53.113281 C 35.835938 53.574219 35.46875 53.945312 35.007812 53.945312 Z M 35.007812 53.945312 " fill-opacity="1" fill-rule="nonzero"/><path fill="#421e68" d="M 35.007812 65.4375 L 27.949219 65.4375 C 27.488281 65.4375 27.117188 65.066406 27.117188 64.601562 L 27.117188 57.503906 C 27.117188 57.039062 27.488281 56.667969 27.949219 56.667969 L 35.007812 56.667969 C 35.46875 56.667969 35.835938 57.039062 35.835938 57.503906 L 35.835938 64.59375 C 35.835938 65.066406 35.46875 65.4375 35.007812 65.4375 Z M 35.007812 65.4375 " fill-opacity="1" fill-rule="nonzero"/><path fill="#662d91" d="M 23.910156 53.269531 L 16.851562 53.269531 C 16.394531 53.269531 16.023438 52.898438 16.023438 52.433594 L 16.023438 45.335938 C 16.023438 44.871094 16.394531 44.5 16.851562 44.5 L 23.910156 44.5 C 24.371094 44.5 24.742188 44.871094 24.742188 45.335938 L 24.742188 52.433594 C 24.75 52.898438 24.371094 53.269531 23.910156 53.269531 Z M 23.910156 53.269531 " fill-opacity="1" fill-rule="nonzero"/><path fill="#662d91" d="M 23.910156 64.761719 L 16.851562 64.761719 C 16.394531 64.761719 16.023438 64.390625 16.023438 63.925781 L 16.023438 56.824219 C 16.023438 56.363281 16.394531 55.992188 16.851562 55.992188 L 23.910156 55.992188 C 24.371094 55.992188 24.742188 56.363281 24.742188 56.824219 L 24.742188 63.914062 C 24.75 64.390625 24.371094 64.761719 23.910156 64.761719 Z M 23.910156 64.761719 " fill-opacity="1" fill-rule="nonzero"/><path fill="#662d91" d="M 35.007812 53.269531 L 27.949219 53.269531 C 27.488281 53.269531 27.117188 52.898438 27.117188 52.433594 L 27.117188 45.335938 C 27.117188 44.871094 27.488281 44.5 27.949219 44.5 L 35.007812 44.5 C 35.46875 44.5 35.835938 44.871094 35.835938 45.335938 L 35.835938 52.433594 C 35.835938 52.898438 35.46875 53.269531 35.007812 53.269531 Z M 35.007812 53.269531 " fill-opacity="1" fill-rule="nonzero"/><path fill="#662d91" d="M 35.007812 64.761719 L 27.949219 64.761719 C 27.488281 64.761719 27.117188 64.390625 27.117188 63.925781 L 27.117188 56.824219 C 27.117188 56.363281 27.488281 55.992188 27.949219 55.992188 L 35.007812 55.992188 C 35.46875 55.992188 35.835938 56.363281 35.835938 56.824219 L 35.835938 63.914062 C 35.835938 64.390625 35.46875 64.761719 35.007812 64.761719 Z M 35.007812 64.761719 " fill-opacity="1" fill-rule="nonzero"/><path fill="#421e68" d="M 46.460938 53.945312 L 39.40625 53.945312 C 38.945312 53.945312 38.574219 53.574219 38.574219 53.113281 L 38.574219 46.011719 C 38.574219 45.546875 38.945312 45.175781 39.40625 45.175781 L 46.460938 45.175781 C 46.921875 45.175781 47.292969 45.546875 47.292969 46.011719 L 47.292969 53.113281 C 47.292969 53.574219 46.921875 53.945312 46.460938 53.945312 Z M 46.460938 53.945312 " fill-opacity="1" fill-rule="nonzero"/><path fill="#421e68" d="M 46.460938 65.4375 L 39.40625 65.4375 C 38.945312 65.4375 38.574219 65.066406 38.574219 64.601562 L 38.574219 57.503906 C 38.574219 57.039062 38.945312 56.667969 39.40625 56.667969 L 46.460938 56.667969 C 46.921875 56.667969 47.292969 57.039062 47.292969 57.503906 L 47.292969 64.59375 C 47.292969 65.066406 46.921875 65.4375 46.460938 65.4375 Z M 46.460938 65.4375 " fill-opacity="1" fill-rule="nonzero"/><path fill="#421e68" d="M 57.546875 53.945312 L 50.492188 53.945312 C 50.03125 53.945312 49.660156 53.574219 49.660156 53.113281 L 49.660156 46.011719 C 49.660156 45.546875 50.03125 45.175781 50.492188 45.175781 L 57.546875 45.175781 C 58.007812 45.175781 58.378906 45.546875 58.378906 46.011719 L 58.378906 53.113281 C 58.390625 53.574219 58.007812 53.945312 57.546875 53.945312 Z M 57.546875 53.945312 " fill-opacity="1" fill-rule="nonzero"/><path fill="#421e68" d="M 57.546875 65.4375 L 50.492188 65.4375 C 50.03125 65.4375 49.660156 65.066406 49.660156 64.601562 L 49.660156 57.503906 C 49.660156 57.039062 50.03125 56.667969 50.492188 56.667969 L 57.546875 56.667969 C 58.007812 56.667969 58.378906 57.039062 58.378906 57.503906 L 58.378906 64.59375 C 58.390625 65.066406 58.007812 65.4375 57.546875 65.4375 Z M 57.546875 65.4375 " fill-opacity="1" fill-rule="nonzero"/><path fill="#662d91" d="M 46.460938 53.269531 L 39.40625 53.269531 C 38.945312 53.269531 38.574219 52.898438 38.574219 52.433594 L 38.574219 45.335938 C 38.574219 44.871094 38.945312 44.5 39.40625 44.5 L 46.460938 44.5 C 46.921875 44.5 47.292969 44.871094 47.292969 45.335938 L 47.292969 52.433594 C 47.292969 52.898438 46.921875 53.269531 46.460938 53.269531 Z M 46.460938 53.269531 " fill-opacity="1" fill-rule="nonzero"/><path fill="#662d91" d="M 46.460938 64.761719 L 39.40625 64.761719 C 38.945312 64.761719 38.574219 64.390625 38.574219 63.925781 L 38.574219 56.824219 C 38.574219 56.363281 38.945312 55.992188 39.40625 55.992188 L 46.460938 55.992188 C 46.921875 55.992188 47.292969 56.363281 47.292969 56.824219 L 47.292969 63.914062 C 47.292969 64.390625 46.921875 64.761719 46.460938 64.761719 Z M 46.460938 64.761719 " fill-opacity="1" fill-rule="nonzero"/><path fill="#662d91" d="M 57.546875 53.269531 L 50.492188 53.269531 C 50.03125 53.269531 49.660156 52.898438 49.660156 52.433594 L 49.660156 45.335938 C 49.660156 44.871094 50.03125 44.5 50.492188 44.5 L 57.546875 44.5 C 58.007812 44.5 58.378906 44.871094 58.378906 45.335938 L 58.378906 52.433594 C 58.390625 52.898438 58.007812 53.269531 57.546875 53.269531 Z M 57.546875 53.269531 " fill-opacity="1" fill-rule="nonzero"/><path fill="#9e005d" d="M 57.546875 64.761719 L 50.492188 64.761719 C 50.03125 64.761719 49.660156 64.390625 49.660156 63.925781 L 49.660156 56.824219 C 49.660156 56.363281 50.03125 55.992188 50.492188 55.992188 L 57.546875 55.992188 C 58.007812 55.992188 58.378906 56.363281 58.378906 56.824219 L 58.378906 63.914062 C 58.390625 64.390625 58.007812 64.761719 57.546875 64.761719 Z M 57.546875 64.761719 " fill-opacity="1" fill-rule="nonzero"/><path fill="#ffffff" d="M 56.941406 14.484375 C 56.941406 14.460938 56.953125 14.4375 56.953125 14.414062 L 56.953125 6.773438 C 56.953125 6.492188 56.71875 6.253906 56.4375 6.253906 L 52.003906 6.253906 C 51.996094 6.253906 51.984375 6.265625 51.972656 6.265625 C 51.9375 6.265625 51.90625 6.277344 51.871094 6.289062 C 51.835938 6.300781 51.804688 6.308594 51.769531 6.320312 C 51.757812 6.320312 51.746094 6.320312 51.734375 6.332031 C 51.714844 6.34375 51.703125 6.367188 51.691406 6.378906 C 51.65625 6.402344 51.636719 6.421875 51.613281 6.445312 C 51.589844 6.46875 51.578125 6.503906 51.558594 6.523438 C 51.546875 6.558594 51.523438 6.582031 51.511719 6.613281 C 51.5 6.648438 51.5 6.683594 51.488281 6.714844 C 51.488281 6.738281 51.476562 6.761719 51.476562 6.785156 L 51.476562 14.425781 C 51.476562 14.707031 51.714844 14.945312 51.996094 14.945312 L 56.425781 14.945312 C 56.480469 14.945312 56.550781 14.933594 56.605469 14.910156 C 56.617188 14.910156 56.640625 14.902344 56.652344 14.890625 C 56.660156 14.878906 56.671875 14.878906 56.683594 14.878906 C 56.707031 14.867188 56.71875 14.84375 56.730469 14.832031 C 56.761719 14.808594 56.785156 14.789062 56.808594 14.765625 C 56.832031 14.742188 56.839844 14.707031 56.863281 14.6875 C 56.875 14.652344 56.898438 14.628906 56.910156 14.597656 C 56.929688 14.550781 56.929688 14.515625 56.941406 14.484375 Z M 55.921875 12.507812 L 52.902344 7.292969 L 55.921875 7.292969 Z M 52.523438 8.691406 L 55.539062 13.90625 L 52.523438 13.90625 Z M 52.523438 8.691406 " fill-opacity="1" fill-rule="nonzero"/><path fill="#ffffff" d="M 55.820312 59.691406 L 52.230469 59.691406 C 51.949219 59.691406 51.726562 59.46875 51.726562 59.183594 C 51.726562 58.902344 51.949219 58.675781 52.230469 58.675781 L 55.820312 58.675781 C 56.101562 58.675781 56.324219 58.902344 56.324219 59.183594 C 56.324219 59.46875 56.101562 59.691406 55.820312 59.691406 Z M 55.820312 59.691406 " fill-opacity="1" fill-rule="nonzero"/><path fill="#ffffff" d="M 55.820312 62.0625 L 52.230469 62.0625 C 51.949219 62.0625 51.726562 61.835938 51.726562 61.554688 C 51.726562 61.273438 51.949219 61.046875 52.230469 61.046875 L 55.820312 61.046875 C 56.101562 61.046875 56.324219 61.273438 56.324219 61.554688 C 56.324219 61.835938 56.101562 62.0625 55.820312 62.0625 Z M 55.820312 62.0625 " fill-opacity="1" fill-rule="nonzero"/><path fill="#ffffff" d="M 54.742188 37.523438 L 55.652344 36.609375 C 55.855469 36.40625 55.855469 36.089844 55.652344 35.886719 C 55.449219 35.683594 55.136719 35.683594 54.933594 35.886719 L 54.023438 36.800781 L 53.117188 35.886719 C 52.914062 35.683594 52.601562 35.683594 52.398438 35.886719 C 52.195312 36.089844 52.195312 36.40625 52.398438 36.609375 L 53.308594 37.523438 L 52.398438 38.4375 C 52.195312 38.640625 52.195312 38.957031 52.398438 39.160156 C 52.5 39.261719 52.621094 39.304688 52.757812 39.304688 C 52.890625 39.304688 53.015625 39.261719 53.117188 39.160156 L 54.023438 38.246094 L 54.933594 39.160156 C 55.035156 39.261719 55.160156 39.304688 55.292969 39.304688 C 55.425781 39.304688 55.550781 39.261719 55.652344 39.160156 C 55.855469 38.957031 55.855469 38.640625 55.652344 38.4375 Z M 54.742188 37.523438 " fill-opacity="1" fill-rule="nonzero"/><path fill="#ffffff" d="M 55.820312 49.421875 L 52.230469 49.421875 C 51.949219 49.421875 51.726562 49.195312 51.726562 48.914062 C 51.726562 48.628906 51.949219 48.40625 52.230469 48.40625 L 55.820312 48.40625 C 56.101562 48.40625 56.324219 48.628906 56.324219 48.914062 C 56.324219 49.195312 56.101562 49.421875 55.820312 49.421875 Z M 55.820312 49.421875 " fill-opacity="1" fill-rule="nonzero"/><path fill="#ffffff" d="M 52.757812 27.578125 C 52.621094 27.578125 52.5 27.53125 52.398438 27.429688 C 52.195312 27.226562 52.195312 26.910156 52.398438 26.707031 L 54.933594 24.15625 C 55.136719 23.953125 55.449219 23.953125 55.652344 24.15625 C 55.855469 24.359375 55.855469 24.675781 55.652344 24.878906 L 53.117188 27.429688 C 53.015625 27.519531 52.878906 27.578125 52.757812 27.578125 Z M 52.757812 27.578125 " fill-opacity="1" fill-rule="nonzero"/><path fill="#ffffff" d="M 44.722656 59.976562 L 43.433594 59.976562 L 43.433594 58.675781 C 43.433594 58.394531 43.207031 58.167969 42.929688 58.167969 C 42.648438 58.167969 42.421875 58.394531 42.421875 58.675781 L 42.421875 59.976562 L 41.144531 59.976562 C 40.863281 59.976562 40.640625 60.199219 40.640625 60.484375 C 40.640625 60.765625 40.863281 60.992188 41.144531 60.992188 L 42.433594 60.992188 L 42.433594 62.289062 C 42.433594 62.570312 42.660156 62.796875 42.941406 62.796875 C 43.21875 62.796875 43.445312 62.570312 43.445312 62.289062 L 43.445312 60.992188 L 44.734375 60.992188 C 45.015625 60.992188 45.238281 60.765625 45.238281 60.484375 C 45.238281 60.199219 45.003906 59.976562 44.722656 59.976562 Z M 44.722656 59.976562 " fill-opacity="1" fill-rule="nonzero"/><path fill="#ffffff" d="M 20.398438 47.625 L 20.386719 47.625 L 19.558594 48.019531 L 19.386719 47.253906 L 20.542969 46.710938 L 21.398438 46.710938 L 21.398438 51.113281 L 20.410156 51.113281 L 20.410156 47.625 Z M 20.398438 47.625 " fill-opacity="1" fill-rule="nonzero"/><path fill="#ffffff" d="M 29.925781 51.148438 L 29.925781 50.527344 L 30.484375 50.007812 C 31.4375 49.148438 31.910156 48.652344 31.921875 48.132812 C 31.921875 47.773438 31.707031 47.488281 31.203125 47.488281 C 30.820312 47.488281 30.496094 47.683594 30.273438 47.851562 L 29.980469 47.117188 C 30.304688 46.871094 30.820312 46.667969 31.417969 46.667969 C 32.402344 46.667969 32.953125 47.253906 32.953125 48.042969 C 32.953125 48.777344 32.425781 49.375 31.785156 49.941406 L 31.382812 50.277344 L 31.382812 50.289062 L 33.03125 50.289062 L 33.03125 51.136719 Z M 29.925781 51.148438 " fill-opacity="1" fill-rule="nonzero"/><path fill="#ffffff" d="M 41.59375 50.097656 C 41.773438 50.1875 42.1875 50.367188 42.613281 50.367188 C 43.140625 50.367188 43.410156 50.109375 43.410156 49.78125 C 43.410156 49.351562 42.984375 49.148438 42.523438 49.148438 L 42.109375 49.148438 L 42.109375 48.414062 L 42.503906 48.414062 C 42.851562 48.40625 43.289062 48.28125 43.289062 47.90625 C 43.289062 47.648438 43.074219 47.445312 42.636719 47.445312 C 42.277344 47.445312 41.90625 47.601562 41.714844 47.703125 L 41.503906 46.960938 C 41.761719 46.789062 42.289062 46.632812 42.859375 46.632812 C 43.792969 46.632812 44.320312 47.128906 44.320312 47.726562 C 44.320312 48.191406 44.0625 48.5625 43.523438 48.753906 L 43.523438 48.765625 C 44.050781 48.855469 44.476562 49.261719 44.476562 49.839844 C 44.476562 50.617188 43.792969 51.179688 42.679688 51.179688 C 42.121094 51.179688 41.636719 51.035156 41.378906 50.867188 Z M 41.59375 50.097656 " fill-opacity="1" fill-rule="nonzero"/><path fill="#ffffff" d="M 20.613281 39.722656 L 20.613281 38.675781 L 18.671875 38.675781 L 18.671875 38.007812 L 20.332031 35.320312 L 21.585938 35.320312 L 21.585938 37.90625 L 22.113281 37.90625 L 22.113281 38.675781 L 21.585938 38.675781 L 21.585938 39.722656 Z M 20.613281 37.894531 L 20.613281 36.925781 C 20.613281 36.664062 20.621094 36.394531 20.644531 36.101562 L 20.613281 36.101562 C 20.464844 36.382812 20.351562 36.640625 20.207031 36.925781 L 19.625 37.882812 L 19.625 37.894531 Z M 20.613281 37.894531 " fill-opacity="1" fill-rule="nonzero"/><path fill="#ffffff" d="M 32.851562 36.121094 L 31.160156 36.121094 L 31.070312 36.800781 C 31.160156 36.789062 31.25 36.789062 31.347656 36.789062 C 31.765625 36.789062 32.191406 36.878906 32.503906 37.105469 C 32.832031 37.332031 33.03125 37.691406 33.03125 38.210938 C 33.03125 39.035156 32.335938 39.757812 31.160156 39.757812 C 30.632812 39.757812 30.183594 39.632812 29.933594 39.507812 L 30.113281 38.742188 C 30.304688 38.832031 30.710938 38.957031 31.101562 38.957031 C 31.527344 38.957031 31.976562 38.753906 31.976562 38.289062 C 31.976562 37.839844 31.617188 37.554688 30.742188 37.554688 C 30.496094 37.554688 30.328125 37.566406 30.148438 37.601562 L 30.441406 35.289062 L 32.851562 35.289062 Z M 32.851562 36.121094 " fill-opacity="1" fill-rule="nonzero"/><path fill="#ffffff" d="M 44.128906 36.042969 C 44.015625 36.03125 43.894531 36.042969 43.734375 36.054688 C 42.828125 36.132812 42.421875 36.597656 42.3125 37.117188 L 42.332031 37.117188 C 42.546875 36.890625 42.851562 36.765625 43.265625 36.765625 C 43.996094 36.765625 44.621094 37.285156 44.621094 38.199219 C 44.621094 39.070312 43.960938 39.792969 43.007812 39.792969 C 41.839844 39.792969 41.269531 38.921875 41.269531 37.871094 C 41.269531 37.046875 41.570312 36.359375 42.042969 35.917969 C 42.480469 35.523438 43.039062 35.296875 43.734375 35.265625 C 43.925781 35.253906 44.050781 35.253906 44.152344 35.253906 L 44.152344 36.042969 Z M 43.566406 38.257812 C 43.566406 37.851562 43.355469 37.5 42.917969 37.5 C 42.636719 37.5 42.414062 37.667969 42.3125 37.894531 C 42.289062 37.953125 42.265625 38.03125 42.265625 38.15625 C 42.289062 38.617188 42.511719 39.046875 42.972656 39.046875 C 43.34375 39.035156 43.566406 38.695312 43.566406 38.257812 Z M 43.566406 38.257812 " fill-opacity="1" fill-rule="nonzero"/><path fill="#ffffff" d="M 21.933594 23.59375 L 21.933594 24.246094 L 20.128906 27.996094 L 19.039062 27.996094 L 20.847656 24.449219 L 20.847656 24.4375 L 18.839844 24.4375 L 18.839844 23.59375 Z M 21.933594 23.59375 " fill-opacity="1" fill-rule="nonzero"/><path fill="#ffffff" d="M 29.824219 26.84375 C 29.824219 26.3125 30.125 25.953125 30.609375 25.738281 L 30.609375 25.714844 C 30.183594 25.5 29.980469 25.140625 29.980469 24.753906 C 29.980469 24.011719 30.640625 23.515625 31.515625 23.515625 C 32.539062 23.515625 32.964844 24.113281 32.964844 24.640625 C 32.964844 25.027344 32.761719 25.398438 32.335938 25.613281 L 32.335938 25.636719 C 32.761719 25.792969 33.132812 26.167969 33.132812 26.730469 C 33.132812 27.53125 32.472656 28.0625 31.449219 28.0625 C 30.339844 28.0625 29.824219 27.441406 29.824219 26.84375 Z M 32.089844 26.808594 C 32.089844 26.425781 31.808594 26.1875 31.40625 26.085938 C 31.070312 26.179688 30.878906 26.425781 30.878906 26.742188 C 30.867188 27.058594 31.113281 27.363281 31.496094 27.363281 C 31.855469 27.351562 32.089844 27.113281 32.089844 26.808594 Z M 30.933594 24.722656 C 30.933594 25.015625 31.203125 25.207031 31.550781 25.320312 C 31.785156 25.253906 32 25.039062 32 24.753906 C 32 24.484375 31.84375 24.214844 31.472656 24.214844 C 31.113281 24.214844 30.933594 24.4375 30.933594 24.722656 Z M 30.933594 24.722656 " fill-opacity="1" fill-rule="nonzero"/><path fill="#ffffff" d="M 41.683594 27.25 C 41.804688 27.261719 41.929688 27.261719 42.132812 27.25 C 42.445312 27.226562 42.761719 27.136719 42.996094 26.980469 C 43.277344 26.789062 43.46875 26.492188 43.546875 26.167969 L 43.523438 26.15625 C 43.332031 26.359375 43.039062 26.472656 42.648438 26.472656 C 41.90625 26.472656 41.277344 25.953125 41.277344 25.09375 C 41.277344 24.234375 41.964844 23.515625 42.929688 23.515625 C 44.050781 23.515625 44.589844 24.382812 44.589844 25.410156 C 44.589844 26.324219 44.296875 26.992188 43.824219 27.429688 C 43.410156 27.816406 42.839844 28.019531 42.152344 28.050781 C 41.976562 28.0625 41.804688 28.0625 41.695312 28.050781 L 41.695312 27.25 Z M 42.300781 25.039062 C 42.300781 25.421875 42.503906 25.738281 42.917969 25.738281 C 43.199219 25.738281 43.386719 25.601562 43.476562 25.445312 C 43.511719 25.386719 43.535156 25.320312 43.535156 25.183594 C 43.535156 24.722656 43.355469 24.257812 42.894531 24.257812 C 42.558594 24.269531 42.300781 24.585938 42.300781 25.039062 Z M 42.300781 25.039062 " fill-opacity="1" fill-rule="nonzero"/><path fill="#ffffff" d="M 22.035156 60.460938 C 22.035156 61.828125 21.488281 62.753906 20.375 62.753906 C 19.242188 62.753906 18.75 61.726562 18.738281 60.484375 C 18.738281 59.207031 19.277344 58.203125 20.410156 58.203125 C 21.578125 58.214844 22.035156 59.265625 22.035156 60.460938 Z M 19.769531 60.496094 C 19.757812 61.5 20.003906 61.984375 20.398438 61.984375 C 20.789062 61.984375 21.015625 61.488281 21.015625 60.484375 C 21.015625 59.511719 20.800781 58.992188 20.398438 58.992188 C 20.015625 58.992188 19.757812 59.46875 19.769531 60.496094 Z M 19.769531 60.496094 " fill-opacity="1" fill-rule="nonzero"/><path fill="#ffffff" d="M 32.515625 60.484375 C 32.515625 60.621094 32.488281 60.757812 32.4375 60.886719 C 32.382812 61.011719 32.308594 61.128906 32.210938 61.226562 C 32.113281 61.324219 32 61.398438 31.871094 61.453125 C 31.742188 61.507812 31.609375 61.53125 31.472656 61.53125 C 31.335938 61.53125 31.199219 61.507812 31.074219 61.453125 C 30.945312 61.398438 30.832031 61.324219 30.734375 61.226562 C 30.636719 61.128906 30.5625 61.011719 30.507812 60.886719 C 30.457031 60.757812 30.429688 60.621094 30.429688 60.484375 C 30.429688 60.34375 30.457031 60.210938 30.507812 60.082031 C 30.5625 59.953125 30.636719 59.839844 30.734375 59.742188 C 30.832031 59.640625 30.945312 59.566406 31.074219 59.511719 C 31.199219 59.460938 31.335938 59.433594 31.472656 59.433594 C 31.609375 59.433594 31.742188 59.460938 31.871094 59.511719 C 32 59.566406 32.113281 59.640625 32.210938 59.742188 C 32.308594 59.839844 32.382812 59.953125 32.4375 60.082031 C 32.488281 60.210938 32.515625 60.34375 32.515625 60.484375 Z M 32.515625 60.484375 " fill-opacity="1" fill-rule="nonzero"/></svg>